<svg xmlns="http://www.w3.org/2000/svg" width="256" height="256" viewBox="0 0 256 230">
  <g fill="currentColor">
    <path d="m157.98 142.487l-4.91 8.527a8.288 8.288 0 0 1-7.182 4.151H108.27a8.288 8.288 0 0 1-7.182-4.151l-4.911-8.527h61.802Zm13.747-23.87l-8.658 15.034h-71.98l-8.658-15.034h89.296Zm-8.34-23.342l8.354 14.506H82.417l8.354-14.506h72.616Zm-17.5-22.066a8.288 8.288 0 0 1 7.183 4.151l5.228 9.079H95.86l5.229-9.079a8.288 8.288 0 0 1 7.182-4.151h37.617Z"/>
    <path d="M53.523 69.252c-4.167-20.206-5.062-35.704-2.368-46.957c1.602-6.693 4.53-12.153 8.984-16.093c4.702-4.159 10.646-6.2 17.326-6.2c11.018 0 22.602 5.025 34.98 14.57c5.05 3.894 10.29 8.587 15.732 14.082c.434-.557.923-1.083 1.469-1.57c15.386-13.71 28.34-22.23 39.42-25.514c6.588-1.954 12.773-2.14 18.405-.244c5.946 2 10.683 6.137 14.026 11.93c5.516 9.561 6.97 22.124 4.914 37.637c-.838 6.323-2.271 13.21-4.296 20.673c.764.092 1.53.262 2.288.513c19.521 6.47 33.345 13.426 41.714 21.377c4.98 4.73 8.231 9.996 9.407 15.826c1.24 6.153.03 12.324-3.308 18.113c-5.506 9.548-15.63 17.077-30.052 23.041c-5.79 2.395-12.343 4.564-19.664 6.515c.334.754.594 1.555.767 2.395c4.167 20.206 5.061 35.704 2.368 46.957c-1.602 6.693-4.531 12.153-8.985 16.093c-4.701 4.159-10.646 6.2-17.325 6.2c-11.019 0-22.602-5.025-34.98-14.57c-5.104-3.936-10.402-8.687-15.907-14.258a11.737 11.737 0 0 1-2.084 2.442c-15.386 13.712-28.34 22.23-39.42 25.515c-6.588 1.954-12.773 2.14-18.405.244c-5.946-2-10.683-6.137-14.026-11.93c-5.516-9.561-6.97-22.124-4.914-37.637c.869-6.551 2.376-13.709 4.518-21.485a11.732 11.732 0 0 1-2.51-.537c-19.521-6.47-33.345-13.426-41.714-21.377c-4.98-4.73-8.231-9.996-9.407-15.826c-1.24-6.153-.03-12.325 3.308-18.114c5.506-9.547 15.63-17.077 30.052-23.04c5.963-2.467 12.734-4.693 20.32-6.689a11.81 11.81 0 0 1-.633-2.082Z"/>
    <path d="M189.647 161.333a3.684 3.684 0 0 1 4.235 2.81l.023.112l.207 1.075c6.71 35.276 1.983 52.915-14.18 52.915c-15.813 0-35.944-15.051-60.392-45.153a3.684 3.684 0 0 1 2.777-6.005h.114l1.288.009c10.28 0 19.803 4.39 26.886 12.348c6.441 7.232 9.664 16.87 9.664 28.713c0 13.026-3.85 24.26-11.165 32.558c-6.772 7.684-16.098 11.507-27.863 11.507c-2.98 0-5.903-.24-8.713-.713c-10.18-1.71-19.065-6.095-25.996-12.903c-6.932-6.808-10.398-15.683-10.398-26.626c0-16.26 8.21-30.24 24.63-41.943c10.54-7.507 23.91-11.273 40.107-11.273h2.413c17.026 0 31.145 4.39 42.357 13.17c11.211 8.78 16.817 20.675 16.817 35.686c0 5.95-.797 11.66-2.391 17.128Zm-47.196 15.93c-3.11 4.84-7.406 7.26-12.886 7.26c-5.48 0-9.775-2.42-12.886-7.26c-3.11-4.84-4.666-11.193-4.666-19.058c0-7.864 1.556-14.218 4.666-19.058c3.11-4.84 7.406-7.26 12.886-7.26c5.48 0 9.775 2.42 12.886 7.26c3.11 4.84 4.666 11.193 4.666 19.058c0 7.864-1.556 14.218-4.666 19.058Zm-57.89-15.93c-3.11 4.84-7.406 7.26-12.886 7.26c-5.48 0-9.775-2.42-12.886-7.26c-3.11-4.84-4.666-11.193-4.666-19.058c0-7.864 1.556-14.218 4.666-19.058c3.11-4.84 7.406-7.26 12.886-7.26c5.48 0 9.775 2.42 12.886 7.26c3.11 4.84 4.666 11.193 4.666 19.058c0 7.864-1.556 14.218-4.666 19.058Z"/>
  </g>
</svg>